HIERARCHY
ROOT Hips
{
    OFFSET 0.0 0.0 0.0
    CHANNELS 6 Xposition Yposition Zposition Zrotation Xrotation Yrotation
    JOINT Spine
    {
        OFFSET 0.0 5.0 0.0
        CHANNELS 3 Zrotation Xrotation Yrotation
        JOINT Chest
        {
            OFFSET 0.0 5.0 0.0
            CHANNELS 3 Zrotation Xrotation Yrotation
            JOINT Neck
            {
                OFFSET 0.0 8.0 0.0
                CHANNELS 3 Zrotation Xrotation Yrotation
                JOINT Head
                {
                    OFFSET 0.0 5.0 0.0
                    CHANNELS 3 Zrotation Xrotation Yrotation
                    End Site
                    {
                        OFFSET 0.0 3.0 0.0
                    }
                }
            }
            JOINT LeftShoulder
            {
                OFFSET -5.0 0.0 0.0
                CHANNELS 3 Zrotation Xrotation Yrotation
                JOINT LeftArm
                {
                    OFFSET 0.0 -10.0 0.0
                    CHANNELS 3 Zrotation Xrotation Yrotation
                    JOINT LeftForeArm
                    {
                        OFFSET 0.0 -10.0 0.0
                        CHANNELS 3 Zrotation Xrotation Yrotation
                        End Site
                        {
                            OFFSET 0.0 -3.0 0.0
                        }
                    }
                }
            }
        }
    }
}

MOTION
Frames: 37
Frame Time: 0.033333
970.000000 442.938926 114.223928 0.000000 0.000000 0.000000 0.000000 0.000000 0.000000 29.678605 32.958133 0.000000 180.000000 -11.492727 0.000000 29.744881 3.611589 -0.000000 150.255119 -11.626484 30.000000 19.983107 2.207433 0.000000 18.000000 -0.793541 0.000000
1354.522934 467.411410 132.913820 0.000000 0.000000 0.000000 0.000000 0.000000 0.000000 150.622570 1.032242 4.973798 -29.377430 -8.002234 4.973798 140.176400 6.562443 3.759997 -12.221629 -3.743047 29.763441 132.794256 0.142285 -3.759997 -2.626015 0.369116 0.313953
969.997807 442.887864 127.336891 0.000000 0.000000 0.000000 0.000000 0.000000 0.000000 31.061399 17.539629 9.635073 180.000000 1.357653 9.635073 30.285790 2.316430 7.460697 149.714210 1.790323 29.057495 19.151579 1.997579 -7.460697 18.000000 -0.092590 0.626666
1246.736984 514.278152 135.472977 0.000000 0.000000 0.000000 0.000000 0.000000 0.000000 143.557092 9.955600 13.690942 -36.442908 -7.734258 13.690942 133.761037 -5.117419 11.043737 -156.950665 -6.076515 27.893295 0.000000 0.000000 0.000000 1.928484 0.468341 0.936907
1245.221100 458.637464 128.805817 0.000000 0.000000 0.000000 0.000000 0.000000 0.000000 160.701064 -15.229146 16.886559 -19.298936 14.011795 16.886559 140.193827 -1.163278 14.452610 -157.554825 -5.445788 26.289200 29.500467 4.443706 -14.452610 -15.049953 -0.444371 1.243449
1257.365570 418.514181 117.956175 0.000000 0.000000 0.000000 0.000000 0.000000 0.000000 -143.710676 0.769515 19.021130 36.289324 -6.453475 19.021130 163.220413 5.858918 17.633558 11.688054 1.607500 24.270510 152.038385 0.033366 -17.633558 -2.339948 0.060129 1.545085
1275.099564 408.163741 105.665840 0.000000 0.000000 0.000000 0.000000 0.000000 0.000000 -132.929531 -3.347395 19.960535 47.070469 -17.445025 19.960535 173.491912 8.735136 20.536413 -160.709681 -5.126940 21.869059 33.138793 5.058051 -20.536413 -14.686121 -0.505805 1.840623
1290.611115 384.880857 112.350385 0.000000 0.000000 0.000000 0.000000 0.000000 0.000000 -132.705235 -1.284580 19.645745 47.294765 4.750533 19.645745 -173.778854 -1.205162 23.115397 20.496835 2.807288 19.122720 -161.220290 -4.429342 -23.115397 1.723235 0.378159 2.128896
1302.817154 380.305352 97.674513 0.000000 0.000000 0.000000 0.000000 0.000000 0.000000 -131.493915 7.020621 18.096541 48.506085 -12.345580 18.096541 -165.393697 6.029203 25.329838 23.154815 -0.797727 16.074804 -178.200316 -0.819211 -25.329838 0.138141 -0.002011 2.408768
1304.997711 379.563582 81.446357 0.000000 0.000000 0.000000 0.000000 0.000000 0.000000 -126.727972 -8.385850 15.410265 53.272028 -1.547511 15.410265 -160.219593 10.128313 27.144812 28.448880 5.048908 12.773379 -174.368770 -1.417754 -27.144812 0.079526 -0.050115 2.679134
1311.668472 386.890390 97.042600 0.000000 0.000000 0.000000 0.000000 0.000000 0.000000 -122.308728 -4.517050 11.755705 57.691272 3.160120 11.755705 -158.801130 0.333378 28.531695 150.942637 -2.164739 9.270510 -154.878332 -3.836980 -28.531695 2.695409 0.409316 2.938926
1305.131836 395.180186 80.525725 0.000000 0.000000 0.000000 0.000000 0.000000 0.000000 -125.112810 18.458423 7.362491 54.887190 -4.576498 7.362491 -146.487292 0.466359 29.468618 -175.167369 -8.604459 5.621439 -159.224034 -4.135139 -29.468618 1.782042 0.537451 3.187120
1296.320457 392.734526 62.877056 0.000000 0.000000 0.000000 0.000000 0.000000 0.000000 -131.035750 0.474296 2.506665 48.964250 6.502982 2.506665 -128.969563 -1.974624 29.940802 38.856147 -3.617378 1.883716 -134.776850 0.273497 -29.940802 3.458429 0.188609 3.422736
1306.963577 386.612041 56.476422 0.000000 0.000000 0.000000 0.000000 0.000000 0.000000 -124.469622 2.083626 -2.506665 55.530378 -4.437461 -2.506665 -109.994856 0.659661 29.940802 37.691309 1.103306 -1.883716 -118.274788 -1.137937 -29.940802 5.098336 -0.064631 3.644843
969.892723 442.572198 83.669940 0.000000 0.000000 0.000000 0.000000 0.000000 0.000000 41.287575 11.301373 -7.362491 180.000000 -21.089110 -7.362491 30.974696 11.097962 29.468618 149.025304 -7.451394 -5.621439 15.072869 -2.576324 -29.468618 18.000000 -0.153975 3.852566
969.876883 442.545207 63.707380 0.000000 0.000000 0.000000 0.000000 0.000000 0.000000 42.241956 -0.948770 -11.755705 180.000000 -12.562768 -11.755705 30.826133 13.463753 28.531695 149.173867 0.816952 -9.270510 14.823070 1.095098 -28.531695 18.000000 0.515731 4.045085
969.859960 442.518116 76.942672 0.000000 0.000000 0.000000 0.000000 0.000000 0.000000 43.199779 23.546925 -15.410265 180.000000 9.074567 -15.410265 30.649504 -10.034226 27.144812 149.350496 1.636165 -12.773379 14.587557 -1.227817 -27.144812 18.000000 -0.384973 4.221640
969.841956 442.490926 51.238520 0.000000 0.000000 0.000000 0.000000 0.000000 0.000000 44.157210 -26.531665 -18.096541 180.000000 6.121112 -18.096541 30.446417 -1.637449 25.329838 149.553583 7.962603 -16.074804 14.366154 0.137053 -25.329838 18.000000 0.206185 4.381533
969.822873 442.463637 56.411898 0.000000 0.000000 0.000000 0.000000 0.000000 0.000000 45.110117 -23.977445 -19.645745 180.000000 19.535517 -19.645745 30.218633 -2.619256 23.115397 149.781367 18.419241 -19.122720 14.158653 -6.616707 -23.115397 18.000000 0.153155 4.524135
969.802712 442.436251 48.083009 0.000000 0.000000 0.000000 0.000000 0.000000 0.000000 46.054109 16.165111 -19.960535 180.000000 -4.584414 -19.960535 29.968037 0.257464 20.536413 150.031963 5.545264 -21.869059 13.964823 -1.113861 -20.536413 18.000000 -0.207658 4.648882
1187.040939 541.658249 62.262059 0.000000 0.000000 0.000000 0.000000 0.000000 0.000000 82.806623 -24.241605 -19.021130 -97.193377 23.458111 -19.021130 45.395981 9.916383 17.633558 -156.144455 -2.082868 -24.270510 0.000000 0.000000 0.000000 0.000000 0.000000 0.000000
1182.242889 522.024286 60.408867 0.000000 0.000000 0.000000 0.000000 0.000000 0.000000 -105.721938 -14.405163 -16.886559 74.278062 -0.390049 -16.886559 -155.708006 -2.497930 14.452610 -157.302521 -2.569383 -26.289200 0.000000 0.000000 0.000000 2.684983 0.224966 4.842916
1180.914459 527.065626 37.324950 0.000000 0.000000 0.000000 0.000000 0.000000 0.000000 88.055617 -0.495752 -13.690942 -91.944383 -1.664749 -13.690942 -158.862018 -2.197149 11.043737 -151.747289 -2.288248 -27.893295 0.000000 0.000000 0.000000 0.000000 0.000000 0.000000
1236.800194 541.387432 31.697119 0.000000 0.000000 0.000000 0.000000 0.000000 0.000000 -85.588400 9.874876 -9.635073 94.411600 0.198232 -9.635073 -159.297106 -2.949880 7.460697 -157.915391 -2.758486 -29.057495 26.607362 2.397236 -7.460697 14.926890 -0.401169 4.960574
1161.066513 575.006626 41.480769 0.000000 0.000000 0.000000 0.000000 0.000000 0.000000 -81.021168 -7.137255 -4.973798 98.978832 4.303781 -4.973798 -102.851701 -2.648592 3.759997 -157.041007 -2.076784 -29.763441 21.429890 2.818575 -3.759997 10.859432 0.034540 4.990134
1255.636253 512.645942 53.524934 0.000000 0.000000 0.000000 0.000000 0.000000 0.000000 77.832564 -0.054409 -0.000000 -102.167436 -2.085485 -0.000000 -158.264834 -1.916785 0.000000 -130.745502 1.069403 -30.000000 -157.699225 -2.718997 -0.000000 0.000000 0.000000 0.000000
1265.118484 521.473864 60.511882 0.000000 0.000000 0.000000 0.000000 0.000000 0.000000 64.078276 -3.729129 4.973798 -115.921724 10.055643 4.973798 41.397952 -4.992664 -3.759997 -139.329851 1.889305 -29.763441 20.223252 0.447295 3.759997 -16.047574 -0.032461 4.990134
1228.099480 522.138258 52.299086 0.000000 0.000000 0.000000 0.000000 0.000000 0.000000 71.050901 -1.657494 9.635073 -108.949099 -12.973613 9.635073 150.099970 5.975880 -7.460697 -139.894702 -1.140357 -29.057495 -156.275691 -3.287725 7.460697 0.000000 0.000000 0.000000
1240.357246 528.695873 37.630974 0.000000 0.000000 0.000000 0.000000 0.000000 0.000000 65.413351 -9.395065 13.690942 -114.586649 19.034961 13.690942 147.242328 -4.408419 -11.043737 -154.470720 -1.558345 -27.893295 25.557225 2.576836 11.043737 -15.444278 -0.257684 4.911436
1231.815262 551.380248 45.076268 0.000000 0.000000 0.000000 0.000000 0.000000 0.000000 56.412506 21.784742 16.886559 -123.587494 -17.199433 16.886559 -153.392336 6.016934 -14.452610 -154.784582 -3.123381 -26.289200 24.191555 4.254078 14.452610 -15.580844 -0.425408 4.842916
1221.475182 508.360147 53.846466 0.000000 0.000000 0.000000 0.000000 0.000000 0.000000 77.450622 -3.286827 19.021130 -102.549378 -6.595678 19.021130 -156.789784 -2.893186 -17.633558 -125.590168 -3.219607 -24.270510 -160.017240 -3.134819 17.633558 1.833434 0.422198 4.755283
969.477684 442.100429 75.050088 0.000000 0.000000 0.000000 0.000000 0.000000 0.000000 54.932575 14.739028 19.960535 180.000000 -0.257975 19.960535 25.919122 1.855857 -20.536413 154.080878 -5.375672 -21.869059 12.612867 3.395989 20.536413 18.000000 -0.029708 4.648882
1480.140495 518.878891 68.785523 0.000000 0.000000 0.000000 0.000000 0.000000 0.000000 -110.621767 86.277269 19.645745 69.378233 85.602515 19.645745 -158.235933 -2.846014 -23.115397 166.031448 3.332366 -19.122720 -155.186432 -2.992807 23.115397 2.641553 0.367573 4.524135
1271.640472 556.840560 68.539852 0.000000 0.000000 0.000000 0.000000 0.000000 0.000000 -94.404719 4.107627 18.096541 85.595281 -16.315304 18.096541 -62.417786 4.864899 -25.329838 23.992813 -3.452238 -16.074804 -76.856107 0.494180 25.329838 7.708835 -0.150687 4.381533
1258.556786 530.268441 86.386826 0.000000 0.000000 0.000000 0.000000 0.000000 0.000000 78.355945 -4.513974 15.410265 -101.644055 -1.295839 15.410265 35.068294 1.192842 -27.144812 -54.090640 2.079209 -12.773379 35.848220 2.004877 27.144812 -8.104639 -0.125328 4.221640
1250.800209 527.150567 66.984057 0.000000 0.000000 0.000000 0.000000 0.000000 0.000000 72.417769 -0.582139 11.755705 -107.582231 1.514019 11.755705 24.571109 -1.469370 -28.531695 -39.196117 -0.085308 -9.270510 10.411117 5.092383 28.531695 -9.048616 -1.300776 4.045085
1243.466148 571.776259 86.295232 0.000000 0.000000 0.000000 0.000000 0.000000 0.000000 86.301473 12.483179 7.362491 -93.698527 -10.587826 7.362491 24.553534 -1.297651 -29.468618 -153.460385 -4.406719 -5.621439 19.510484 3.243008 29.468618 -10.109500 4.494814 3.852566
